<svg width="750" height="590" viewBox="0 0 750 590" fill="none" xmlns="http://www.w3.org/2000/svg">
    <path d="M375 7.5C275.481 7.5 184.715 38.1569 117.866 89.2767C51.0045 140.406 7.5 213.316 7.5 295C7.5 376.684 51.0045 449.594 117.866 500.723C184.715 551.843 275.481 582.5 375 582.5C474.519 582.5 565.285 551.843 632.134 500.723C698.996 449.594 742.5 376.684 742.5 295C742.5 213.316 698.996 140.406 632.134 89.2767C565.285 38.1569 474.519 7.5 375 7.5ZM375 62.5C463.256 62.5 542.517 90.006 598.725 132.989C654.933 175.971 687.5 233.104 687.5 295C687.5 356.896 654.933 414.029 598.725 457.011C542.517 499.994 463.256 527.5 375 527.5C286.744 527.5 207.483 499.994 151.275 457.011C95.0671 414.029 62.5 356.896 62.5 295C62.5 233.104 95.0671 175.971 151.275 132.989C207.483 90.006 286.744 62.5 375 62.5Z" fill="black" stroke="black" stroke-width="15"/>
</svg>
